<mxfile host="app.diagrams.net" modified="2024-06-15T13:19:02.755Z" agent="Mozilla/5.0 (X11; Linux x86_64) AppleWebKit/537.36 (KHTML, like Gecko) Chrome/126.0.0.0 Safari/537.36" etag="3DWS20EnwKVWrsk30Apj" version="24.5.4" type="github">
  <diagram name="Page-1" id="5d7acffa-a066-3a61-03fe-96351882024d">
    <mxGraphModel dx="905" dy="1912" grid="1" gridSize="10" guides="1" tooltips="1" connect="1" arrows="1" fold="1" page="1" pageScale="1" pageWidth="1100" pageHeight="850" background="#ffffff" math="0" shadow="0">
      <root>
        <mxCell id="0" />
        <mxCell id="1" parent="0" />
        <mxCell id="b87rpcidDxEJQfmS-h4E-2" value="Sensors" style="swimlane;fontStyle=0;childLayout=stackLayout;horizontal=1;startSize=30;horizontalStack=0;resizeParent=1;resizeParentMax=0;resizeLast=0;collapsible=1;marginBottom=0;whiteSpace=wrap;html=1;" parent="1" vertex="1">
          <mxGeometry x="610" y="190" width="140" height="180" as="geometry" />
        </mxCell>
        <mxCell id="b87rpcidDxEJQfmS-h4E-3" value="Cameras" style="text;strokeColor=#b85450;fillColor=#FFCE9F;align=left;verticalAlign=middle;spacingLeft=4;spacingRight=4;overflow=hidden;points=[[0,0.5],[1,0.5]];portConstraint=eastwest;rotatable=0;whiteSpace=wrap;html=1;" parent="b87rpcidDxEJQfmS-h4E-2" vertex="1">
          <mxGeometry y="30" width="140" height="30" as="geometry" />
        </mxCell>
        <mxCell id="b87rpcidDxEJQfmS-h4E-4" value="LIDAR" style="text;strokeColor=#2D7600;fillColor=#60a917;align=left;verticalAlign=middle;spacingLeft=4;spacingRight=4;overflow=hidden;points=[[0,0.5],[1,0.5]];portConstraint=eastwest;rotatable=0;whiteSpace=wrap;html=1;fontColor=#000000;" parent="b87rpcidDxEJQfmS-h4E-2" vertex="1">
          <mxGeometry y="60" width="140" height="30" as="geometry" />
        </mxCell>
        <mxCell id="b87rpcidDxEJQfmS-h4E-5" value="RADAR" style="text;strokeColor=#001DBC;fillColor=#6666FF;align=left;verticalAlign=middle;spacingLeft=4;spacingRight=4;overflow=hidden;points=[[0,0.5],[1,0.5]];portConstraint=eastwest;rotatable=0;whiteSpace=wrap;html=1;fontColor=#000000;" parent="b87rpcidDxEJQfmS-h4E-2" vertex="1">
          <mxGeometry y="90" width="140" height="30" as="geometry" />
        </mxCell>
        <mxCell id="b87rpcidDxEJQfmS-h4E-14" value="Human" style="text;strokeColor=#A50040;fillColor=#FF99CC;align=left;verticalAlign=middle;spacingLeft=4;spacingRight=4;overflow=hidden;points=[[0,0.5],[1,0.5]];portConstraint=eastwest;rotatable=0;whiteSpace=wrap;html=1;fontColor=#000000;" parent="b87rpcidDxEJQfmS-h4E-2" vertex="1">
          <mxGeometry y="120" width="140" height="30" as="geometry" />
        </mxCell>
        <mxCell id="b87rpcidDxEJQfmS-h4E-6" value="GPS" style="text;strokeColor=#C73500;fillColor=#fa6800;align=left;verticalAlign=middle;spacingLeft=4;spacingRight=4;overflow=hidden;points=[[0,0.5],[1,0.5]];portConstraint=eastwest;rotatable=0;whiteSpace=wrap;html=1;fontColor=#000000;" parent="b87rpcidDxEJQfmS-h4E-2" vertex="1">
          <mxGeometry y="150" width="140" height="30" as="geometry" />
        </mxCell>
        <mxCell id="b87rpcidDxEJQfmS-h4E-70" style="edgeStyle=orthogonalEdgeStyle;rounded=0;orthogonalLoop=1;jettySize=auto;html=1;exitX=1;exitY=0.25;exitDx=0;exitDy=0;entryX=0.25;entryY=1;entryDx=0;entryDy=0;dashed=1;" parent="1" source="b87rpcidDxEJQfmS-h4E-7" target="b87rpcidDxEJQfmS-h4E-2" edge="1">
          <mxGeometry relative="1" as="geometry">
            <mxPoint x="640" y="380" as="targetPoint" />
          </mxGeometry>
        </mxCell>
        <mxCell id="b87rpcidDxEJQfmS-h4E-71" value="calibration data" style="edgeLabel;html=1;align=center;verticalAlign=middle;resizable=0;points=[];" parent="b87rpcidDxEJQfmS-h4E-70" vertex="1" connectable="0">
          <mxGeometry x="-0.5055" y="-1" relative="1" as="geometry">
            <mxPoint x="12" y="-11" as="offset" />
          </mxGeometry>
        </mxCell>
        <mxCell id="b87rpcidDxEJQfmS-h4E-7" value="Foriegn Object Detection System" style="rounded=0;whiteSpace=wrap;html=1;strokeColor=#36393d;fillColor=#cce5ff;" parent="1" vertex="1">
          <mxGeometry x="360" y="425" width="120" height="60" as="geometry" />
        </mxCell>
        <mxCell id="b87rpcidDxEJQfmS-h4E-8" value="" style="endArrow=classic;html=1;rounded=0;entryX=0;entryY=0.75;entryDx=0;entryDy=0;dashed=1;" parent="1" target="b87rpcidDxEJQfmS-h4E-7" edge="1">
          <mxGeometry width="50" height="50" relative="1" as="geometry">
            <mxPoint x="130" y="470" as="sourcePoint" />
            <mxPoint x="310" y="440" as="targetPoint" />
          </mxGeometry>
        </mxCell>
        <mxCell id="b87rpcidDxEJQfmS-h4E-64" value="intelligent airport system (IAS) information" style="edgeLabel;html=1;align=center;verticalAlign=middle;resizable=0;points=[];" parent="b87rpcidDxEJQfmS-h4E-8" vertex="1" connectable="0">
          <mxGeometry x="-0.6177" relative="1" as="geometry">
            <mxPoint x="56" y="10" as="offset" />
          </mxGeometry>
        </mxCell>
        <mxCell id="b87rpcidDxEJQfmS-h4E-9" value="" style="endArrow=classic;html=1;rounded=0;exitX=1;exitY=0.75;exitDx=0;exitDy=0;dashed=1;" parent="1" source="b87rpcidDxEJQfmS-h4E-7" edge="1">
          <mxGeometry width="50" height="50" relative="1" as="geometry">
            <mxPoint x="570" y="460" as="sourcePoint" />
            <mxPoint x="710" y="470" as="targetPoint" />
          </mxGeometry>
        </mxCell>
        <mxCell id="b87rpcidDxEJQfmS-h4E-66" value="input to IAS" style="edgeLabel;html=1;align=center;verticalAlign=middle;resizable=0;points=[];" parent="b87rpcidDxEJQfmS-h4E-9" vertex="1" connectable="0">
          <mxGeometry x="-0.2069" y="-3" relative="1" as="geometry">
            <mxPoint y="-13" as="offset" />
          </mxGeometry>
        </mxCell>
        <mxCell id="b87rpcidDxEJQfmS-h4E-12" style="edgeStyle=orthogonalEdgeStyle;rounded=0;orthogonalLoop=1;jettySize=auto;html=1;entryX=1.028;entryY=0.571;entryDx=0;entryDy=0;entryPerimeter=0;exitX=-0.036;exitY=0.56;exitDx=0;exitDy=0;exitPerimeter=0;" parent="1" source="b87rpcidDxEJQfmS-h4E-11" target="b87rpcidDxEJQfmS-h4E-5" edge="1">
          <mxGeometry relative="1" as="geometry">
            <mxPoint x="870" y="330" as="sourcePoint" />
            <Array as="points">
              <mxPoint x="870" y="298" />
            </Array>
          </mxGeometry>
        </mxCell>
        <mxCell id="b87rpcidDxEJQfmS-h4E-11" value="Obstacle" style="rounded=1;whiteSpace=wrap;html=1;strokeColor=#d79b00;fillColor=#ffe6cc;" parent="1" vertex="1">
          <mxGeometry x="890" y="272.5" width="100" height="45" as="geometry" />
        </mxCell>
        <mxCell id="b87rpcidDxEJQfmS-h4E-16" style="edgeStyle=orthogonalEdgeStyle;rounded=0;orthogonalLoop=1;jettySize=auto;html=1;entryX=1;entryY=0.5;entryDx=0;entryDy=0;endArrow=none;endFill=0;" parent="1" source="b87rpcidDxEJQfmS-h4E-15" target="b87rpcidDxEJQfmS-h4E-3" edge="1">
          <mxGeometry relative="1" as="geometry" />
        </mxCell>
        <mxCell id="b87rpcidDxEJQfmS-h4E-20" value="FOD&lt;span style=&quot;background-color: initial;&quot;&gt;S&amp;nbsp;&lt;/span&gt;&lt;span style=&quot;background-color: initial;&quot;&gt;Server&lt;/span&gt;" style="swimlane;fontStyle=0;childLayout=stackLayout;horizontal=1;startSize=26;horizontalStack=0;resizeParent=1;resizeParentMax=0;resizeLast=0;collapsible=1;marginBottom=0;html=1;" parent="1" vertex="1">
          <mxGeometry x="370" y="60" width="140" height="134" as="geometry" />
        </mxCell>
        <mxCell id="b87rpcidDxEJQfmS-h4E-21" value="Logger" style="text;strokeColor=#82b366;fillColor=#d5e8d4;align=left;verticalAlign=top;spacingLeft=4;spacingRight=4;overflow=hidden;rotatable=0;points=[[0,0.5],[1,0.5]];portConstraint=eastwest;whiteSpace=wrap;html=1;gradientColor=#97d077;" parent="b87rpcidDxEJQfmS-h4E-20" vertex="1">
          <mxGeometry y="26" width="140" height="26" as="geometry" />
        </mxCell>
        <mxCell id="b87rpcidDxEJQfmS-h4E-22" value="AI engine &amp;lt;new name&amp;gt;" style="text;strokeColor=#6c8ebf;fillColor=#dae8fc;align=left;verticalAlign=top;spacingLeft=4;spacingRight=4;overflow=hidden;rotatable=0;points=[[0,0.5],[1,0.5]];portConstraint=eastwest;whiteSpace=wrap;html=1;gradientColor=#7ea6e0;" parent="b87rpcidDxEJQfmS-h4E-20" vertex="1">
          <mxGeometry y="52" width="140" height="26" as="geometry" />
        </mxCell>
        <mxCell id="b87rpcidDxEJQfmS-h4E-26" value="Obstacle Detection" style="text;strokeColor=#d79b00;fillColor=#ffcd28;align=left;verticalAlign=middle;spacingLeft=4;spacingRight=4;overflow=hidden;points=[[0,0.5],[1,0.5]];portConstraint=eastwest;rotatable=0;whiteSpace=wrap;html=1;gradientColor=#ffa500;" parent="b87rpcidDxEJQfmS-h4E-20" vertex="1">
          <mxGeometry y="78" width="140" height="30" as="geometry" />
        </mxCell>
        <mxCell id="b87rpcidDxEJQfmS-h4E-42" value="Environment Mapping&lt;span style=&quot;color: rgba(0, 0, 0, 0); font-family: monospace; font-size: 0px; text-wrap: nowrap;&quot;&gt;%3CmxGraphModel%3E%3Croot%3E%3CmxCell%20id%3D%220%22%2F%3E%3CmxCell%20id%3D%221%22%20parent%3D%220%22%2F%3E%3CmxCell%20id%3D%222%22%20value%3D%22Human%22%20style%3D%22text%3BstrokeColor%3Dnone%3BfillColor%3Dnone%3Balign%3Dleft%3BverticalAlign%3Dmiddle%3BspacingLeft%3D4%3BspacingRight%3D4%3Boverflow%3Dhidden%3Bpoints%3D%5B%5B0%2C0.5%5D%2C%5B1%2C0.5%5D%5D%3BportConstraint%3Deastwest%3Brotatable%3D0%3BwhiteSpace%3Dwrap%3Bhtml%3D1%3B%22%20vertex%3D%221%22%20parent%3D%221%22%3E%3CmxGeometry%20x%3D%22610%22%20y%3D%22310%22%20width%3D%22140%22%20height%3D%2230%22%20as%3D%22geometry%22%2F%3E%3C%2FmxCell%3E%3C%2Froot%3E%3C%2FmxGraphModel%3E&lt;/span&gt;" style="text;strokeColor=#b85450;fillColor=#f8cecc;align=left;verticalAlign=top;spacingLeft=4;spacingRight=4;overflow=hidden;rotatable=0;points=[[0,0.5],[1,0.5]];portConstraint=eastwest;whiteSpace=wrap;html=1;gradientColor=#ea6b66;" parent="b87rpcidDxEJQfmS-h4E-20" vertex="1">
          <mxGeometry y="108" width="140" height="26" as="geometry" />
        </mxCell>
        <mxCell id="b87rpcidDxEJQfmS-h4E-25" style="edgeStyle=orthogonalEdgeStyle;rounded=0;orthogonalLoop=1;jettySize=auto;html=1;exitX=0.5;exitY=0;exitDx=0;exitDy=0;entryX=1.007;entryY=0.163;entryDx=0;entryDy=0;entryPerimeter=0;dashed=1;" parent="1" source="b87rpcidDxEJQfmS-h4E-2" target="b87rpcidDxEJQfmS-h4E-20" edge="1">
          <mxGeometry relative="1" as="geometry" />
        </mxCell>
        <mxCell id="b87rpcidDxEJQfmS-h4E-58" value="obstacle-position-data" style="edgeLabel;html=1;align=center;verticalAlign=middle;resizable=0;points=[];" parent="b87rpcidDxEJQfmS-h4E-25" vertex="1" connectable="0">
          <mxGeometry x="0.3865" y="-1" relative="1" as="geometry">
            <mxPoint y="-11" as="offset" />
          </mxGeometry>
        </mxCell>
        <mxCell id="b87rpcidDxEJQfmS-h4E-27" value="AI System" style="ellipse;shape=cloud;whiteSpace=wrap;html=1;fontColor=#000000;fillColor=#FFFFFF;strokeColor=#000000;" parent="1" vertex="1">
          <mxGeometry x="110" y="85" width="120" height="80" as="geometry" />
        </mxCell>
        <mxCell id="b87rpcidDxEJQfmS-h4E-30" style="edgeStyle=orthogonalEdgeStyle;rounded=0;orthogonalLoop=1;jettySize=auto;html=1;exitX=0;exitY=0.5;exitDx=0;exitDy=0;entryX=0.875;entryY=0.5;entryDx=0;entryDy=0;entryPerimeter=0;endArrow=none;endFill=0;" parent="1" source="b87rpcidDxEJQfmS-h4E-22" target="b87rpcidDxEJQfmS-h4E-27" edge="1">
          <mxGeometry relative="1" as="geometry" />
        </mxCell>
        <mxCell id="b87rpcidDxEJQfmS-h4E-54" style="edgeStyle=orthogonalEdgeStyle;rounded=0;orthogonalLoop=1;jettySize=auto;html=1;exitX=0.25;exitY=1;exitDx=0;exitDy=0;entryX=0;entryY=0.583;entryDx=0;entryDy=0;entryPerimeter=0;dashed=1;" parent="1" source="b87rpcidDxEJQfmS-h4E-32" target="b87rpcidDxEJQfmS-h4E-7" edge="1">
          <mxGeometry relative="1" as="geometry">
            <mxPoint x="350" y="430" as="targetPoint" />
          </mxGeometry>
        </mxCell>
        <mxCell id="b87rpcidDxEJQfmS-h4E-65" value="alert priority" style="edgeLabel;html=1;align=center;verticalAlign=middle;resizable=0;points=[];" parent="b87rpcidDxEJQfmS-h4E-54" vertex="1" connectable="0">
          <mxGeometry x="-0.0129" y="1" relative="1" as="geometry">
            <mxPoint x="66" y="-9" as="offset" />
          </mxGeometry>
        </mxCell>
        <mxCell id="b87rpcidDxEJQfmS-h4E-32" value="Alert Manager" style="swimlane;fontStyle=0;childLayout=stackLayout;horizontal=1;startSize=26;horizontalStack=0;resizeParent=1;resizeParentMax=0;resizeLast=0;collapsible=1;marginBottom=0;html=1;" parent="1" vertex="1">
          <mxGeometry x="150" y="240" width="140" height="108" as="geometry" />
        </mxCell>
        <mxCell id="b87rpcidDxEJQfmS-h4E-33" value="priority 1" style="text;strokeColor=#36393d;fillColor=#FF6666;align=left;verticalAlign=top;spacingLeft=4;spacingRight=4;overflow=hidden;rotatable=0;points=[[0,0.5],[1,0.5]];portConstraint=eastwest;whiteSpace=wrap;html=1;" parent="b87rpcidDxEJQfmS-h4E-32" vertex="1">
          <mxGeometry y="26" width="140" height="26" as="geometry" />
        </mxCell>
        <mxCell id="b87rpcidDxEJQfmS-h4E-34" value="priority 2" style="text;strokeColor=#36393d;fillColor=#ffff88;align=left;verticalAlign=top;spacingLeft=4;spacingRight=4;overflow=hidden;rotatable=0;points=[[0,0.5],[1,0.5]];portConstraint=eastwest;whiteSpace=wrap;html=1;" parent="b87rpcidDxEJQfmS-h4E-32" vertex="1">
          <mxGeometry y="52" width="140" height="26" as="geometry" />
        </mxCell>
        <mxCell id="b87rpcidDxEJQfmS-h4E-35" value="priority 3" style="text;strokeColor=#36393d;fillColor=#cdeb8b;align=left;verticalAlign=middle;spacingLeft=4;spacingRight=4;overflow=hidden;points=[[0,0.5],[1,0.5]];portConstraint=eastwest;rotatable=0;whiteSpace=wrap;html=1;" parent="b87rpcidDxEJQfmS-h4E-32" vertex="1">
          <mxGeometry y="78" width="140" height="30" as="geometry" />
        </mxCell>
        <mxCell id="b87rpcidDxEJQfmS-h4E-37" style="edgeStyle=orthogonalEdgeStyle;rounded=0;orthogonalLoop=1;jettySize=auto;html=1;exitX=0;exitY=0.5;exitDx=0;exitDy=0;entryX=0.5;entryY=0;entryDx=0;entryDy=0;dashed=1;" parent="1" source="b87rpcidDxEJQfmS-h4E-26" target="b87rpcidDxEJQfmS-h4E-32" edge="1">
          <mxGeometry relative="1" as="geometry" />
        </mxCell>
        <mxCell id="b87rpcidDxEJQfmS-h4E-57" value="obstacle priority" style="edgeLabel;html=1;align=center;verticalAlign=middle;resizable=0;points=[];" parent="b87rpcidDxEJQfmS-h4E-37" vertex="1" connectable="0">
          <mxGeometry x="-0.1663" y="1" relative="1" as="geometry">
            <mxPoint x="19" y="11" as="offset" />
          </mxGeometry>
        </mxCell>
        <mxCell id="b87rpcidDxEJQfmS-h4E-46" style="edgeStyle=orthogonalEdgeStyle;rounded=0;orthogonalLoop=1;jettySize=auto;html=1;exitX=1;exitY=0.3333333333333333;exitDx=0;exitDy=0;exitPerimeter=0;entryX=1;entryY=0.75;entryDx=0;entryDy=0;dashed=1;" parent="1" source="b87rpcidDxEJQfmS-h4E-38" target="b87rpcidDxEJQfmS-h4E-2" edge="1">
          <mxGeometry relative="1" as="geometry">
            <Array as="points">
              <mxPoint x="70" y="380" />
              <mxPoint x="100" y="380" />
              <mxPoint x="100" y="550" />
              <mxPoint x="770" y="550" />
              <mxPoint x="770" y="325" />
            </Array>
          </mxGeometry>
        </mxCell>
        <mxCell id="b87rpcidDxEJQfmS-h4E-56" value="Human-machine-interface" style="edgeLabel;html=1;align=center;verticalAlign=middle;resizable=0;points=[];" parent="b87rpcidDxEJQfmS-h4E-46" vertex="1" connectable="0">
          <mxGeometry x="0.1127" relative="1" as="geometry">
            <mxPoint x="-17" y="-10" as="offset" />
          </mxGeometry>
        </mxCell>
        <mxCell id="b87rpcidDxEJQfmS-h4E-38" value="Stakeholders" style="shape=umlActor;verticalLabelPosition=bottom;verticalAlign=top;html=1;outlineConnect=0;" parent="1" vertex="1">
          <mxGeometry x="40" y="330" width="30" height="60" as="geometry" />
        </mxCell>
        <mxCell id="b87rpcidDxEJQfmS-h4E-40" style="edgeStyle=orthogonalEdgeStyle;rounded=0;orthogonalLoop=1;jettySize=auto;html=1;exitX=0;exitY=0.25;exitDx=0;exitDy=0;entryX=1;entryY=0.3333333333333333;entryDx=0;entryDy=0;entryPerimeter=0;dashed=1;" parent="1" source="b87rpcidDxEJQfmS-h4E-32" target="b87rpcidDxEJQfmS-h4E-38" edge="1">
          <mxGeometry relative="1" as="geometry" />
        </mxCell>
        <mxCell id="b87rpcidDxEJQfmS-h4E-43" value="Networked System" style="text;html=1;align=center;verticalAlign=middle;resizable=0;points=[];autosize=1;strokeColor=none;fillColor=none;" parent="1" vertex="1">
          <mxGeometry x="110" y="55" width="120" height="30" as="geometry" />
        </mxCell>
        <mxCell id="b87rpcidDxEJQfmS-h4E-49" value="" style="group;" parent="1" vertex="1" connectable="0">
          <mxGeometry x="910" y="80" width="120" height="100" as="geometry" />
        </mxCell>
        <mxCell id="b87rpcidDxEJQfmS-h4E-15" value="GPS&lt;div&gt;System&lt;/div&gt;" style="ellipse;shape=cloud;whiteSpace=wrap;html=1;" parent="b87rpcidDxEJQfmS-h4E-49" vertex="1">
          <mxGeometry y="20" width="120" height="80" as="geometry" />
        </mxCell>
        <mxCell id="b87rpcidDxEJQfmS-h4E-44" value="Satellite System" style="text;html=1;align=center;verticalAlign=middle;resizable=0;points=[];autosize=1;strokeColor=none;fillColor=none;" parent="b87rpcidDxEJQfmS-h4E-49" vertex="1">
          <mxGeometry x="5" width="110" height="30" as="geometry" />
        </mxCell>
        <mxCell id="b87rpcidDxEJQfmS-h4E-50" value="" style="group;" parent="1" vertex="1" connectable="0">
          <mxGeometry x="130" y="-80" width="120" height="100" as="geometry" />
        </mxCell>
        <mxCell id="b87rpcidDxEJQfmS-h4E-51" value="&lt;div&gt;Weather&lt;/div&gt;&lt;div&gt;&lt;span style=&quot;background-color: initial;&quot;&gt;System&lt;/span&gt;&lt;/div&gt;" style="ellipse;shape=cloud;whiteSpace=wrap;html=1;" parent="b87rpcidDxEJQfmS-h4E-50" vertex="1">
          <mxGeometry y="20" width="120" height="80" as="geometry" />
        </mxCell>
        <mxCell id="b87rpcidDxEJQfmS-h4E-52" value="Weather System" style="text;html=1;align=center;verticalAlign=middle;resizable=0;points=[];autosize=1;strokeColor=none;fillColor=none;" parent="b87rpcidDxEJQfmS-h4E-50" vertex="1">
          <mxGeometry x="5" width="110" height="30" as="geometry" />
        </mxCell>
        <mxCell id="b87rpcidDxEJQfmS-h4E-55" style="edgeStyle=orthogonalEdgeStyle;rounded=0;orthogonalLoop=1;jettySize=auto;html=1;exitX=0.55;exitY=0.95;exitDx=0;exitDy=0;exitPerimeter=0;entryX=0;entryY=0.125;entryDx=0;entryDy=0;endArrow=none;endFill=0;entryPerimeter=0;" parent="1" source="b87rpcidDxEJQfmS-h4E-51" target="b87rpcidDxEJQfmS-h4E-20" edge="1">
          <mxGeometry relative="1" as="geometry">
            <Array as="points">
              <mxPoint x="270" y="16" />
              <mxPoint x="270" y="80" />
            </Array>
          </mxGeometry>
        </mxCell>
        <mxCell id="b87rpcidDxEJQfmS-h4E-59" value="" style="endArrow=classic;html=1;rounded=0;entryX=-0.026;entryY=0.135;entryDx=0;entryDy=0;entryPerimeter=0;" parent="1" target="b87rpcidDxEJQfmS-h4E-2" edge="1">
          <mxGeometry width="50" height="50" relative="1" as="geometry">
            <mxPoint x="540" y="280" as="sourcePoint" />
            <mxPoint x="600" y="279.65999999999997" as="targetPoint" />
            <Array as="points">
              <mxPoint x="540" y="214" />
            </Array>
          </mxGeometry>
        </mxCell>
        <mxCell id="b87rpcidDxEJQfmS-h4E-61" value="power supply" style="edgeLabel;html=1;align=center;verticalAlign=middle;resizable=0;points=[];" parent="b87rpcidDxEJQfmS-h4E-59" vertex="1" connectable="0">
          <mxGeometry x="-0.456" y="-2" relative="1" as="geometry">
            <mxPoint as="offset" />
          </mxGeometry>
        </mxCell>
        <mxCell id="b87rpcidDxEJQfmS-h4E-62" value="" style="endArrow=classic;html=1;rounded=0;entryX=0.5;entryY=0;entryDx=0;entryDy=0;" parent="1" target="b87rpcidDxEJQfmS-h4E-20" edge="1">
          <mxGeometry width="50" height="50" relative="1" as="geometry">
            <mxPoint x="440" y="-50" as="sourcePoint" />
            <mxPoint x="453" y="-30" as="targetPoint" />
            <Array as="points" />
          </mxGeometry>
        </mxCell>
        <mxCell id="b87rpcidDxEJQfmS-h4E-63" value="power supply" style="edgeLabel;html=1;align=center;verticalAlign=middle;resizable=0;points=[];" parent="b87rpcidDxEJQfmS-h4E-62" vertex="1" connectable="0">
          <mxGeometry x="-0.456" y="-2" relative="1" as="geometry">
            <mxPoint as="offset" />
          </mxGeometry>
        </mxCell>
      </root>
    </mxGraphModel>
  </diagram>
</mxfile>
